<svg width="11" height="11" viewBox="0 0 11 11" fill="none" xmlns="http://www.w3.org/2000/svg">
<path fill-rule="evenodd" clip-rule="evenodd" d="M2.40414e-07 5.5C1.07637e-07 8.53757 2.46243 11 5.5 11C8.53757 11 11 8.53757 11 5.5C11 2.46243 8.53757 3.73189e-07 5.5 2.40413e-07C2.4638 0.003284 0.00328387 2.4638 2.40414e-07 5.5ZM6.28329 3.11346L8.34579 5.17596C8.52472 5.35494 8.52472 5.64506 8.34579 5.82404L6.28329 7.88654C6.16822 8.00569 5.99781 8.05347 5.83756 8.01153C5.67731 7.96958 5.55217 7.84444 5.51022 7.68419C5.46828 7.52394 5.51606 7.35353 5.63521 7.23846L6.72008 6.15404C6.75294 6.12127 6.76278 6.07191 6.74501 6.02904C6.72724 5.98617 6.68537 5.95825 6.63896 5.95833L2.75 5.95833C2.49687 5.95833 2.29167 5.75313 2.29167 5.5C2.29167 5.24687 2.49687 5.04167 2.75 5.04167L6.63896 5.04167C6.68537 5.04175 6.72724 5.01383 6.74501 4.97096C6.76278 4.92809 6.75294 4.87873 6.72008 4.84596L5.63521 3.76154C5.51606 3.64647 5.46828 3.47606 5.51022 3.31581C5.55217 3.15556 5.67731 3.03042 5.83756 2.98847C5.99781 2.94653 6.16822 2.99431 6.28329 3.11346Z" fill="#003894" style="fill:#003894;fill:color(display-p3 0.0000 0.2196 0.5804);fill-opacity:1;"/>
</svg>
